# xmcd
#
# Track frame offsets:
#       150
#       13339
#       30697
#       50464
#       68637
#       88770
#       106704
#       124395
#       144539
#       162785
#       178765
#
# Disc length: 2601 seconds
#
# Revision: 0
# Processed by: cddbd v1.5.2PL0 Copyright (c) Steve Scherf et al.
# Submitted via: WaveLab 6.11
#
DISCID=930a270b
DTITLE=Excluzive - A Dream to Not Wake Up From
DYEAR=2016
DGENRE=Rap
TTITLE0=Nothing's Free
TTITLE1=Excluzive Life
TTITLE2=Like Me
TTITLE3=Me And You
TTITLE4=Trust Issues
TTITLE5=2 Sides
TTITLE6=Me and My Whip
TTITLE7=Party (I'm Gone)
TTITLE8=Livin' Lfe
TTITLE9=Private Dancer
TTITLE10=My Way
EXTD=
EXTT0=
EXTT1=
EXTT2=
EXTT3=
EXTT4=
EXTT5=
EXTT6=
EXTT7=
EXTT8=
EXTT9=
EXTT10=
PLAYORDER=
